<?xml version="1.0" encoding="iso-8859-1"?>
<!-- Generator: Adobe Illustrator 18.1.1, SVG Export Plug-In . SVG Version: 6.00 Build 0)  -->
<svg version="1.1" id="Capa_1" xmlns="http://www.w3.org/2000/svg" xmlns:xlink="http://www.w3.org/1999/xlink" x="0px" y="0px"
	 viewBox="0 0 45.807 45.807" style="enable-background:new 0 0 45.807 45.807;" xml:space="preserve">
<g>
	<path style="fill:#010002;" d="M45.256,8.203l-7.651-7.652C37.252,0.198,36.773,0,36.274,0c-0.5,0-0.978,0.198-1.331,0.551
		L0.55,34.943C0.189,35.304-0.01,35.797,0,36.308l0.136,7.516c0.018,1.012,0.835,1.829,1.848,1.848l7.515,0.135
		c0.011,0,0.023,0,0.034,0c0.499,0,0.978-0.198,1.331-0.552l34.393-34.391C45.99,10.129,45.99,8.938,45.256,8.203z M31.626,19.172
		l-4.991-4.991l2.237-2.236l4.99,4.99L31.626,19.172z M14.139,36.657l-4.99-4.989l14.826-14.826l4.99,4.99L14.139,36.657z
		 M8.767,42.029l-4.901-0.088L3.777,37.04l2.711-2.712l4.99,4.99L8.767,42.029z M36.524,14.273l-4.991-4.99l4.741-4.741l4.99,4.991
		L36.524,14.273z"/>
</g>
<g>
</g>
<g>
</g>
<g>
</g>
<g>
</g>
<g>
</g>
<g>
</g>
<g>
</g>
<g>
</g>
<g>
</g>
<g>
</g>
<g>
</g>
<g>
</g>
<g>
</g>
<g>
</g>
<g>
</g>
</svg>
